<?xml version="1.0" encoding="UTF-8"?>
<svg id="Layer_2" data-name="Layer 2" xmlns="http://www.w3.org/2000/svg" viewBox="0 0 1547.11 562.05">
  <defs>
    <style>
      .cls-1 {
        fill: #fff;
      }
    </style>
  </defs>
  <g id="Layer_1-2" data-name="Layer 1">
    <g id="employ_logo">
      <g id="mask0_34_58" data-name="mask0 34 58">
        <path class="cls-1" d="M238.93,204.05H89.6c3.15,8.08,8.4,14.3,15.73,18.61s16.51,6.46,27.49,6.46c9.42,0,17.36-1.16,23.77-3.53,6.41-2.36,13.43-6.39,21.01-12.15l46.37,46.61c-20.97,22.98-52.25,34.46-93.92,34.46-25.93,0-48.71-4.77-68.38-14.3-19.66-9.53-34.86-22.77-45.59-39.75C5.36,223.51,0,204.45,0,183.3s5.31-40.53,15.91-57.38c10.63-16.84,25.15-29.98,43.61-39.37s39.22-14.09,62.29-14.09c21.75,0,41.59,4.31,59.53,12.92,17.93,8.61,32.24,21.29,42.83,37.99,10.59,16.7,15.91,36.68,15.91,59.93,0,1.31-.39,8.23-1.17,20.76h.03-.02ZM99.8,140.21c-6.02,4.98-9.95,12-11.8,21.15h69.16c-1.84-8.86-5.78-15.85-11.8-20.94s-13.64-7.63-22.78-7.63-16.76,2.47-22.78,7.45v-.04h0Z"/>
        <path class="cls-1" d="M600.79,96.35c15.59,15.92,23.38,39.93,23.38,72.07v122.21h-88.82v-106.92c0-24.54-8-36.82-23.98-36.82-8.4,0-15.13,3.14-20.23,9.39s-7.65,16.21-7.65,29.76v104.59h-88.82v-106.92c0-24.54-8.01-36.82-23.98-36.82-8.4,0-15.13,3.14-20.23,9.39s-7.65,16.21-7.65,29.76v104.59h-88.82V76.37h84.5v19.98c15.98-15.92,36.28-23.9,60.91-23.9,14.42,0,27.38,2.68,38.9,8.01,11.51,5.37,20.97,13.52,28.3,24.47,8.64-10.45,19.13-18.47,31.42-24.08,12.33-5.61,25.79-8.4,40.49-8.4,25.93,0,46.69,7.98,62.29,23.9h-.01Z"/>
        <path class="cls-1" d="M837.56,85.97c15.83,9,28.41,22,37.73,38.98,9.28,16.98,13.95,36.54,13.95,58.76s-4.64,41.7-13.95,58.55c-9.32,16.84-21.9,29.76-37.73,38.77-15.83,9-33.19,13.52-52.08,13.52-23.84,0-42.05-6.14-54.63-18.4v90.47h-88.82V76.37h84.5v17.62c12.82-14.37,32.48-21.54,58.96-21.54,18.85,0,36.2,4.52,52.08,13.52ZM789.42,214.64c6.55-7.31,9.81-17.62,9.81-30.93s-3.29-23.69-9.81-31.14c-6.55-7.45-14.95-11.16-25.15-11.16s-18.6,3.71-25.15,11.16c-6.55,7.45-9.81,17.83-9.81,31.14s3.26,23.62,9.81,30.93,14.91,10.98,25.15,10.98,18.6-3.64,25.15-10.98Z"/>
        <path class="cls-1" d="M904.6,0h88.82v290.61h-88.82V0Z"/>
        <path class="cls-1" d="M1066.54,280.25c-18.99-9.53-33.87-22.7-44.6-39.54-10.74-16.84-16.12-35.98-16.12-57.38s5.34-40.53,16.12-57.38c10.73-16.84,25.61-29.98,44.6-39.37,18.98-9.39,40.41-14.09,64.27-14.09s45.63,4.7,64.66,14.09c18.99,9.39,33.8,22.53,44.39,39.37s15.91,35.98,15.91,57.38-5.32,40.53-15.91,57.38c-10.59,16.84-25.4,30.01-44.39,39.54-18.99,9.53-40.52,14.3-64.66,14.3s-45.28-4.77-64.27-14.3ZM1155.96,214.48c6.56-7.45,9.81-17.83,9.81-31.14s-3.29-23.62-9.81-30.93c-6.55-7.31-14.95-10.98-25.15-10.98s-18.6,3.67-25.15,10.98c-6.56,7.31-9.81,17.62-9.81,30.93s3.25,23.69,9.81,31.14c6.55,7.45,14.91,11.16,25.15,11.16s18.6-3.71,25.15-11.16Z"/>
        <path class="cls-1" d="M1502.35,76.38l-88.44,218.54c-11.26,27.93-25.29,47.52-42.05,58.76-16.75,11.23-37.33,16.84-61.68,16.84-12.04,0-24.16-1.77-36.35-5.3-12.18-3.53-21.82-8.16-28.87-13.91l29.48-60.7c4.46,3.39,9.49,6.14,15.13,8.23,5.63,2.08,11.04,3.14,16.29,3.14,9.71,0,17.04-2.86,22-8.61l-90.38-216.98h91.16l44.38,114.76,45.21-114.76h84.11Z"/>
        <path class="cls-1" d="M1513.65,78.59v-2.01h13.53v2.01h-5.6v14.26h-2.29v-14.26h-5.64Z"/>
        <path class="cls-1" d="M1544.87,92.85v-11.86l-5.91,9.89h-1.06l-5.92-9.82v11.79h-2.23v-16.28h1.91l6.8,11.44,6.74-11.44h1.91v16.28h-2.24Z"/>
      </g>
      <g>
        <g>
          <path class="cls-1" d="M1120.53,500.69c0,11.52-3.21,13.84-8.4,13.84-6.36,0-8.95-3.93-8.95-13.57v-7.2h-19.86v8.28c0,18.78,10.77,30,28.8,30,19.11,0,29.2-10.98,29.2-31.76v-57.25h-20.8v57.66h.01Z"/>
          <path class="cls-1" d="M1179.32,441.04c-21.6,0-34,15.6-34,42.78v5.43c0,27.19,12.4,42.79,34,42.79s33.99-15.6,34-42.78v-5.43c0-27.19-12.4-42.79-34-42.79ZM1166.7,480.15c0-14.38,4.13-21.38,12.62-21.38s12.62,6.99,12.62,21.38v12.76c0,14.38-4.13,21.37-12.62,21.37s-12.62-6.99-12.62-21.37v-12.76Z"/>
          <path class="cls-1" d="M1265.4,485.62c7.35-2.96,11.59-9.5,11.59-18.25,0-20.11-15.72-24.34-28.91-24.34h-29.75v88.01h33.02l-.07-.08c23.09-1.04,28.05-13.92,28.05-24.81,0-10.12-5.01-17.4-13.94-20.54h.01v.02ZM1258.8,504.27c0,5.74-1.94,9.57-11.41,9.57h-8.78v-19.29h8.65c9.57,0,11.54,3.88,11.54,9.72h0ZM1245.74,478.17h-7.13v-18.07h7.13c5.56,0,10.71,1.13,10.71,9.3,0,4.33-1.27,8.77-10.71,8.77h0Z"/>
          <path class="cls-1" d="M1300.86,530.46l.18.59h20.59l25.7-88.01h-20.11l-15.19,55.05-15.08-55.05h-21.62l24.96,85.46.57,1.96h0Z"/>
          <path class="cls-1" d="M1372.34,443.04h-21v88.01h21v-88.01Z"/>
          <path class="cls-1" d="M1420.42,531.05v-70.4h21.92v-17.61h-64.01v17.61h21.53v70.4h20.55,0Z"/>
          <path class="cls-1" d="M1468.88,513.43v-18.47h25.31v-17.34h-25.31v-16.97h33.2v-17.6h-53.73v88.01h52.72l1.28-.02v-17.6h-33.47Z"/>
        </g>
        <g>
          <path class="cls-1" d="M685.58,493.33h28.01v-16.37h-28.15v-17.55h33.52l2.95-16.37h-56.61v88.01h57.66v-17.16h-37.37v-20.55h0Z"/>
          <path class="cls-1" d="M959.98,511.99c-2.03-3-4.08-5.89-6.09-8.59-2.04-2.74-3.74-5-5.1-6.78-.61-.99-1.3-1.88-2.08-2.69,5.06-.96,9.7-3.53,13.24-7.41,4.24-4.78,6.45-10.94,6.19-17.28.17-7.67-3.27-15.11-9.24-19.93-3.05-2.41-6.67-4.1-10.47-4.89-4.46-.91-9.03-1.38-13.59-1.38h-30.83v88h19.75v-35.63c1.11.11,2.18.47,3.12,1.04,1.21.82,2.31,1.77,3.21,2.79,1.45,1.8,2.89,3.77,4.27,5.86,1.71,2.55,4.2,6.35,7.6,11.6l8.82,14.32h24.03l-12.83-19.04h0v.02ZM921.76,458.93h7.36c1.97,0,3.94.1,6.03.31,1.79.15,3.57.63,5.28,1.4,1.49.7,2.74,1.79,3.59,3.11,1.03,1.74,1.52,3.72,1.42,5.72l-.04,1.19h.07c-.07,1.75-.56,3.43-1.4,4.89-.91,1.39-2.18,2.49-3.67,3.15-1.77.78-3.61,1.22-5.53,1.32-2.09.16-4.29.24-6.53.24h-6.58v-21.35.02Z"/>
          <path class="cls-1" d="M619.84,443.04h-20.3v88.01h51.76l3.88-16.85h-35.33v-71.16h-.01Z"/>
          <path class="cls-1" d="M850.81,493.33h28.48v-16.37h-28.64v-17.55h34.13l3.01-16.37h-57.61v88.01h58.68v-17.17h-38.03v-20.55h-.02Z"/>
          <path class="cls-1" d="M780.65,488.28c-.83,2.07-1.55,4.12-2.19,6.29-.63,2.1-1.23,4.26-1.84,6.62-.25,1-.49,1.92-.69,2.77-.21-.85-.44-1.82-.73-2.91-.51-2-1.11-4.16-1.84-6.62-.75-2.52-1.4-4.56-2.01-6.24l-16.04-45.14h-22.22l33.83,88.01h17.67l34.48-88.01h-21.11l-17.31,45.23h.02-.02Z"/>
        </g>
        <path class="cls-1" d="M1029.56,411.04h-3v151.01h3v-151.01Z"/>
        <path class="cls-1" d="M545.8,411.04h-3v151.01h3v-151.01Z"/>
        <g>
          <path class="cls-1" d="M483.38,443.36l-.34,1.67s0,.33.34.33h1.66v6.34s0,.33.34.33h1.33s.33,0,.33-.33v-6.66h1.67s.33,0,.33-.33v-1.33s0-.33-.33-.33h-5.33v.33-.02h0Z"/>
          <path class="cls-1" d="M497.44,443.37l-.32-.33h-.32l-2.59,5.33-2.9-4.99h-.65s-.32,0-.32.33l-1.29,8s0,.33.32.33h1.29s.33,0,.33-.33l.96-4,1.94,4h.97l1.61-4,.65,3.66s0,.33.32.33h1.29s.32,0,.32-.33l-1.61-8h.02-.02Z"/>
          <g>
            <path class="cls-1" d="M386.25,531.05v-32.94h-31.11v32.94h-22.11v-88.01h22.11v35.1h31.11v-35.1h21.78v88.01h-21.78Z"/>
            <path class="cls-1" d="M465.93,531.05l-16.32-30.34h-15.55v30.34h-22.01v-88.01h46.2c14.79,0,26,10.77,26.4,25.17v.78c0,9.39-4.33,16.82-12.54,21.48l-2.42,1.38,19.37,39.18h-23.13ZM432.44,485.29h17.19c7.06-.45,12.29-6.62,11.93-14.09-.04-7.64-5.35-13.61-12.11-13.61h-17.01v27.7h0Z"/>
            <path class="cls-1" d="M148.02,454.29c-5.47-6.3-11.92-9.6-17.43-11.33-3.46-1.27-7.45-1.92-11.96-1.92-18.22,0-33.2,11.23-39.12,29.29-4.05,16.44-2.5,21.93.02,31.82,5.54,18.15,21.01,29.89,39.42,29.89,1.71,0,3.33-.1,4.88-.29,18-1.39,24.57-12.96,24.57-12.96l.96,10.98h21.66v-87.44h-21.71l-1.29,11.95h0ZM99.56,486.54c0-12.27,10.35-22.64,22.6-22.64s22.6,10.37,22.6,22.64-10.35,22.64-22.6,22.64-22.6-10.37-22.6-22.64Z"/>
            <path class="cls-1" d="M175.02,464.26h44.05l-44.05,43.48v22.3h75.68v-20.57h-48.22l48.55-43.56v-22.88h-76.01v21.22h0Z"/>
            <path class="cls-1" d="M329.03,443.04h-74.01v21.22h42.7l-42.7,43.48v22.3h74.01v-20.57h-45.97l45.97-43.54v-22.89Z"/>
            <path class="cls-1" d="M0,532.05v-23.75h17.88c13.4,0,27.27-11.69,27.27-31.26v-51.99h27.85v60.19c-2.18,28.41-23.82,46.82-55.11,46.82,0,0-17.89,0-17.89,0Z"/>
          </g>
        </g>
      </g>
    </g>
  </g>
</svg>