<?xml version="1.0" encoding="UTF-8"?>
<svg id="Layer_2" data-name="Layer 2" xmlns="http://www.w3.org/2000/svg" xmlns:xlink="http://www.w3.org/1999/xlink" viewBox="0 0 47.08 47.08">
  <defs>
    <style>
      .cls-1 {
        fill: #c9f5d6;
      }

      .cls-2 {
        fill: url(#linear-gradient);
      }

      .cls-3 {
        fill: #fff;
      }
    </style>
    <linearGradient id="linear-gradient" x1="-8.65" y1="53.82" x2="-9.23" y2="54.83" gradientTransform="translate(524.16 3065.59) scale(56 -56)" gradientUnits="userSpaceOnUse">
      <stop offset="0" stop-color="#6c9"/>
      <stop offset="1" stop-color="#3cb7ff"/>
    </linearGradient>
  </defs>
  <g id="V2">
    <g id="logo">
      <g id="icon">
        <rect class="cls-2" width="47.08" height="47.08" rx="11.77" ry="11.77"/>
        <g>
          <path class="cls-3" d="M21.84,28.2c1.1-.66,2.3-.71,3.2.11l-2.21-3.62c2.52-1.26,5.04-3.78,5.04-7.56,0-5.04-3.78-8.82-8.82-8.82h-10.09v27.73h5.04v-10.09h3.15l3.15,4.99c-.22-1.14.48-2.12,1.53-2.75ZM14.01,20.91v-7.56h5.04c2.52,0,3.78,1.26,3.78,3.78s-1.26,3.78-3.78,3.78h-5.04Z"/>
          <path class="cls-1" d="M26.89,39.2s-.08,0-.13,0c-.84-.04-1.6-.5-2.04-1.22l-3.28-5.48c-.72-1.2-.33-2.74.87-3.46,1.19-.71,2.74-.33,3.46.87l1.34,2.24,9.3-12.5c.83-1.12,2.41-1.35,3.53-.52,1.12.83,1.35,2.41.52,3.53l-11.55,15.52c-.48.64-1.23,1.02-2.02,1.02Z"/>
        </g>
      </g>
    </g>
  </g>
</svg>