<?xml version="1.0" encoding="UTF-8"?>
<svg id="V2" xmlns="http://www.w3.org/2000/svg" xmlns:xlink="http://www.w3.org/1999/xlink" viewBox="0 0 1000 325">
  <defs>
    <style>
      .cls-1 {
        fill: #c9f5d6;
      }

      .cls-2 {
        fill: url(#linear-gradient);
      }

      .cls-3 {
        fill: #6b7280;
      }

      .cls-4 {
        isolation: isolate;
      }

      .cls-5 {
        fill: #fff;
      }

      .cls-6 {
        fill: #6c9;
      }

      .cls-7 {
        fill: #061419;
      }
    </style>
    <linearGradient id="linear-gradient" x1="-209.986" y1="191.4858" x2="-212.8891" y2="196.5142" gradientTransform="translate(12017.7939 11026.5) scale(56 -56)" gradientUnits="userSpaceOnUse">
      <stop offset="0" stop-color="#6c9"/>
      <stop offset="1" stop-color="#3cb7ff"/>
    </linearGradient>
  </defs>
  <g id="logo">
    <g id="icon">
      <rect class="cls-2" x="59.9999" y="45.2088" width="234.5824" height="234.5824" rx="58.6456" ry="58.6456"/>
      <g>
        <path class="cls-5" d="M168.8153,185.7138c5.4704-3.2857,11.4518-3.5158,15.9423.5727l-11.0055-18.0347c12.5615-6.2808,25.1231-18.8423,25.1231-37.6846,0-25.1231-18.8423-43.9654-43.9654-43.9654h-50.2462v138.177h25.1231v-50.2462h15.7019l15.7019,24.881c-1.109-5.6782,2.3745-10.5551,7.6248-13.6997ZM129.7866,149.4094v-37.6846h25.1231c12.5615,0,18.8423,6.2808,18.8423,18.8423s-6.2808,18.8423-18.8423,18.8423h-25.1231Z"/>
        <path class="cls-1" d="M193.9867,240.5174c-.2085,0-.4201-.0061-.6287-.0184-4.1892-.2085-7.9951-2.4964-10.148-6.0906l-16.3398-27.2944c-3.5636-5.9557-1.6285-13.6656,4.3242-17.2292,5.9526-3.5575,13.6687-1.6315,17.2292,4.3242l6.6979,11.1815,46.333-62.2557c4.1432-5.5723,12.0187-6.7163,17.5757-2.5792,5.5662,4.1432,6.7193,12.0126,2.5792,17.5757l-57.5451,77.3259c-2.3768,3.1895-6.1182,5.0602-10.0775,5.0602Z"/>
      </g>
    </g>
    <g id="text">
      <g class="cls-4">
        <g class="cls-4">
          <path class="cls-7" d="M348.798,157.9433v-71.3259h30.3111c7.6216,0,13.1607.6422,16.6151,1.9218s6.2203,3.5614,8.2954,6.8358,3.1138,7.0207,3.1138,11.2389c0,5.3519-1.5739,9.7696-4.7194,13.2581s-7.8502,5.6827-14.1095,6.5925c3.1138,1.8148,5.6851,3.8096,7.7116,5.9844s4.7607,6.033,8.1981,11.5795l8.709,13.9149h-17.2233l-10.4118-15.5204c-3.6977-5.5465-6.2276-9.0398-7.5899-10.4848s-2.8049-2.4327-4.3302-2.9679-3.9409-.8028-7.2494-.8028h-2.9192v29.7759h-14.4014ZM363.1994,116.7825h10.6551c6.9088,0,11.2219-.2919,12.9418-.8758s3.0652-1.591,4.0382-3.0165,1.4596-3.2111,1.4596-5.3519c0-2.3986-.6398-4.3399-1.9218-5.8141s-3.0895-2.4083-5.4249-2.7976c-1.1677-.1606-4.6707-.2433-10.5091-.2433h-11.2389v18.0991Z"/>
          <path class="cls-7" d="M450.5323,141.4985l13.623,2.2867c-1.7515,4.9967-4.5175,8.7965-8.2954,11.4092s-8.507,3.9166-14.1825,3.9166c-8.9839,0-15.6348-2.9338-19.9479-8.8063-3.4057-4.7048-5.1086-10.6405-5.1086-17.8071,0-8.563,2.2381-15.2674,6.7142-20.1182s10.1369-7.2737,16.98-7.2737c7.6872,0,13.7519,2.5397,18.1964,7.6143s6.5682,12.8542,6.3736,23.3293h-34.252c.0973,4.0528,1.1993,7.2104,3.3084,9.4631s4.7364,3.3814,7.8819,3.3814c2.1407,0,3.9409-.5838,5.4005-1.7515s2.5616-3.0506,3.3084-5.6438ZM451.3107,127.6809c-.0973-3.9555-1.119-6.9672-3.0652-9.0252s-4.3131-3.0895-7.1034-3.0895c-2.9849,0-5.4492,1.085-7.3953,3.2598s-2.9022,5.1232-2.8706,8.8549h20.4344Z"/>
          <path class="cls-7" d="M490.2334,157.9433l-20.8237-51.6699h14.3528l9.7307,26.3701,2.8219,8.8063c.7468-2.2381,1.2163-3.7123,1.4109-4.4275.4549-1.4596.9414-2.9192,1.4596-4.3788l9.828-26.3701h14.0608l-20.5317,51.6699h-12.3093Z"/>
          <path class="cls-7" d="M531.4429,99.2673v-12.6499h13.6716v12.6499h-13.6716ZM531.4429,157.9433v-51.6699h13.6716v51.6699h-13.6716Z"/>
          <path class="cls-7" d="M589.0485,141.4985l13.623,2.2867c-1.7515,4.9967-4.5175,8.7965-8.2954,11.4092s-8.507,3.9166-14.1825,3.9166c-8.9839,0-15.6348-2.9338-19.9479-8.8063-3.4057-4.7048-5.1086-10.6405-5.1086-17.8071,0-8.563,2.2381-15.2674,6.7142-20.1182,4.4761-4.8507,10.1369-7.2737,16.98-7.2737,7.6872,0,13.7519,2.5397,18.1964,7.6143s6.5682,12.8542,6.3736,23.3293h-34.252c.0973,4.0528,1.1993,7.2104,3.3084,9.4631s4.7364,3.3814,7.8819,3.3814c2.1407,0,3.9409-.5838,5.4005-1.7515s2.5616-3.0506,3.3084-5.6438ZM589.827,127.6809c-.0973-3.9555-1.119-6.9672-3.0652-9.0252s-4.3131-3.0895-7.1034-3.0895c-2.9849,0-5.4492,1.085-7.3953,3.2598s-2.9022,5.1232-2.8706,8.8549h20.4344Z"/>
          <path class="cls-7" d="M624.1763,157.9433l-16.3475-51.6699h13.2824l9.682,33.8628,8.9036-33.8628h13.1851l8.6117,33.8628,9.8766-33.8628h13.477l-16.5908,51.6699h-13.1364l-8.9036-33.2303-8.7576,33.2303h-13.2824Z"/>
        </g>
        <g class="cls-4">
          <path class="cls-6" d="M751.4,157.9433h-15.6664l-6.2276-16.2016h-28.5109l-5.8871,16.2016h-15.2772l27.7811-71.3259h15.2285l28.5595,71.3259ZM724.8839,129.7243l-9.828-26.4674-9.6334,26.4674h19.4614Z"/>
          <path class="cls-6" d="M767.6989,157.9433v-59.2598h-21.1642v-12.066h56.6812v12.066h-21.1156v59.2598h-14.4014Z"/>
        </g>
      </g>
      <g class="cls-4">
        <path class="cls-3" d="M371.4705,188.4636h5.1913v22.6676c0,3.9409-.4452,7.0693-1.338,9.3901-.8928,2.3208-2.5008,4.2037-4.8313,5.6584-2.3256,1.4547-5.3811,2.1845-9.1639,2.1845-3.6758,0-6.6801-.6374-9.0179-1.9023s-4.0042-3.0992-5.004-5.4978-1.4985-5.6779-1.4985-9.8329v-22.6676h5.1913v22.6384c0,3.4057.3162,5.9163.9512,7.5315.6325,1.6153,1.7199,2.8608,3.2646,3.7366,1.5423.8709,3.4276,1.3088,5.6584,1.3088,3.8169,0,6.539-.866,8.1616-2.5932,1.6226-1.7321,2.4351-5.06,2.4351-9.9837v-22.6384Z"/>
        <path class="cls-3" d="M382.763,219.2077l4.7632-.7493c.2676,1.9121,1.012,3.3765,2.2356,4.3885,1.2212,1.0217,2.9289,1.5277,5.1232,1.5277,2.2113,0,3.8533-.4525,4.9237-1.3526s1.6056-1.9559,1.6056-3.1722c0-1.085-.4719-1.9413-1.4182-2.5689-.6593-.4281-2.3013-.9682-4.9237-1.6299-3.5322-.8904-5.9819-1.6639-7.3442-2.3159-1.3672-.652-2.401-1.552-3.1041-2.7003-.7055-1.1531-1.0582-2.4229-1.0582-3.8144,0-1.265.2895-2.4375.8685-3.5176.5814-1.0801,1.3696-1.9753,2.3694-2.6905.7493-.5546,1.771-1.0217,3.0652-1.4061,1.2917-.3844,2.6784-.5741,4.1599-.5741,2.2308,0,4.1891.3211,5.8725.9633,1.6883.6422,2.9314,1.5131,3.7341,2.6078.8028,1.0996,1.355,2.564,1.6591,4.4031l-4.7096.6422c-.2141-1.4645-.8344-2.603-1.861-3.4252-1.0242-.8222-2.474-1.2309-4.3472-1.2309-2.2113,0-3.7901.3649-4.7364,1.0947-.9463.7347-1.4182,1.591-1.4182,2.5689,0,.6276.197,1.1871.5887,1.6883.3917.5157,1.0071.9439,1.8464,1.2844.4817.18,1.8999.5887,4.2547,1.2309,3.4082.9098,5.7849,1.6542,7.1302,2.2332,1.3477.579,2.4059,1.4255,3.1722,2.53s1.1507,2.4813,1.1507,4.1209c0,1.6056-.4695,3.1187-1.4037,4.5345-.939,1.4207-2.2891,2.5154-4.0553,3.2938-1.7661.7736-3.7633,1.1628-5.9941,1.1628-3.6928,0-6.5074-.7687-8.4438-2.3013-1.934-1.5326-3.1698-3.8096-3.705-6.8261Z"/>
        <path class="cls-3" d="M431.5453,218.5411l4.9772.6179c-.7858,2.9046-2.2381,5.1621-4.3618,6.7677s-4.8337,2.4083-8.1348,2.4083c-4.1574,0-7.4513-1.2796-9.8888-3.8388-2.4327-2.5592-3.6514-6.1498-3.6514-10.7719,0-4.7826,1.2309-8.49,3.6928-11.1319s5.656-3.9604,9.5799-3.9604c3.7998,0,6.9039,1.2942,9.3123,3.8777,2.4083,2.5884,3.6125,6.2276,3.6125,10.9178,0,.2871-.0097.7152-.0268,1.2844h-21.1934c.1776,3.1235,1.0606,5.5173,2.6492,7.1715,1.5885,1.6639,3.5687,2.4911,5.9406,2.4911,1.7661,0,3.2744-.4622,4.5223-1.3915s2.2381-2.4083,2.9703-4.4421ZM415.7305,210.7517h15.8683c-.2141-2.3889-.8198-4.1793-1.8196-5.3762-1.535-1.8537-3.5225-2.783-5.9673-2.783-2.2113,0-4.0723.7395-5.5781,2.2235-1.5083,1.4791-2.3427,3.4593-2.5032,5.9357Z"/>
        <path class="cls-3" d="M442.5166,227.6928v-28.4185h4.335v4.3058c1.1069-2.0143,2.1286-3.3425,3.0627-3.9847.939-.6422,1.968-.9633,3.0919-.9633,1.6226,0,3.2744.5157,4.9505,1.552l-1.6591,4.4664c-1.1774-.6909-2.3548-1.0412-3.5322-1.0412-1.0533,0-1.9972.3162-2.8365.9487s-1.4353,1.5131-1.7929,2.637c-.5352,1.7126-.8028,3.5858-.8028,5.6195v14.8782h-4.8167Z"/>
        <path class="cls-3" d="M469.3295,227.6928l15.0655-39.2292h5.5927l16.0556,39.2292h-5.9138l-4.5759-11.8812h-16.4035l-4.3083,11.8812h-5.5124ZM480.6487,211.5837h13.2994l-4.0942-10.8643c-1.248-3.2987-2.1772-6.0136-2.783-8.1348-.4987,2.5154-1.2042,5.0113-2.114,7.4926l-4.3083,11.5065Z"/>
        <path class="cls-3" d="M528.1198,217.281l4.7364.6179c-.5182,3.2646-1.8415,5.8189-3.9726,7.6678-2.1335,1.844-4.751,2.7684-7.8551,2.7684-3.8898,0-7.0158-1.2699-9.3779-3.8144-2.3646-2.5397-3.5468-6.1838-3.5468-10.9276,0-3.07.5084-5.7557,1.5253-8.057s2.564-4.0285,4.644-5.1767c2.0775-1.1531,4.3375-1.7272,6.7823-1.7272,3.0871,0,5.6097.7785,7.5729,2.3402s3.2209,3.7804,3.7731,6.6509l-4.6829.7249c-.4452-1.9121-1.2358-3.3474-2.367-4.3107-1.1336-.9633-2.5032-1.445-4.1088-1.445-2.4254,0-4.3983.8709-5.9138,2.6078-1.5156,1.7418-2.2745,4.4907-2.2745,8.2565,0,3.8193.7322,6.5925,2.1943,8.3197,1.462,1.7321,3.3717,2.5981,5.7265,2.5981,1.8902,0,3.469-.579,4.7364-1.7418,1.2674-1.158,2.0702-2.9387,2.4083-5.3519Z"/>
        <path class="cls-3" d="M555.5214,217.281l4.7364.6179c-.5182,3.2646-1.8415,5.8189-3.9726,7.6678-2.1335,1.844-4.751,2.7684-7.8551,2.7684-3.8898,0-7.0158-1.2699-9.3779-3.8144-2.3646-2.5397-3.5468-6.1838-3.5468-10.9276,0-3.07.5084-5.7557,1.5253-8.057s2.564-4.0285,4.644-5.1767c2.0775-1.1531,4.3375-1.7272,6.7823-1.7272,3.0871,0,5.6097.7785,7.5729,2.3402s3.2209,3.7804,3.7731,6.6509l-4.6829.7249c-.4452-1.9121-1.2358-3.3474-2.367-4.3107-1.1336-.9633-2.5032-1.445-4.1088-1.445-2.4254,0-4.3983.8709-5.9138,2.6078-1.5156,1.7418-2.2745,4.4907-2.2745,8.2565,0,3.8193.7322,6.5925,2.1943,8.3197,1.462,1.7321,3.3717,2.5981,5.7265,2.5981,1.8902,0,3.469-.579,4.7364-1.7418,1.2674-1.158,2.0702-2.9387,2.4083-5.3519Z"/>
        <path class="cls-3" d="M583.8329,218.5411l4.9772.6179c-.7858,2.9046-2.2381,5.1621-4.3618,6.7677s-4.8337,2.4083-8.1348,2.4083c-4.1574,0-7.4513-1.2796-9.8888-3.8388-2.4327-2.5592-3.6514-6.1498-3.6514-10.7719,0-4.7826,1.2309-8.49,3.6928-11.1319s5.656-3.9604,9.5799-3.9604c3.7998,0,6.9039,1.2942,9.3123,3.8777,2.4083,2.5884,3.6125,6.2276,3.6125,10.9178,0,.2871-.0097.7152-.0268,1.2844h-21.1934c.1776,3.1235,1.0606,5.5173,2.6492,7.1715,1.5885,1.6639,3.5687,2.4911,5.9406,2.4911,1.7661,0,3.2744-.4622,4.5223-1.3915s2.2381-2.4083,2.9703-4.4421ZM568.0181,210.7517h15.8683c-.2141-2.3889-.8198-4.1793-1.8196-5.3762-1.535-1.8537-3.5225-2.783-5.9673-2.783-2.2113,0-4.0723.7395-5.5781,2.2235-1.5083,1.4791-2.3427,3.4593-2.5032,5.9357Z"/>
        <path class="cls-3" d="M594.8577,238.5815v-39.3071h4.3885v3.6928c1.0339-1.445,2.204-2.53,3.5055-3.25,1.3015-.7249,2.8803-1.085,4.7364-1.085,2.4254,0,4.5661.6228,6.4222,1.8732s3.2549,3.0116,4.2012,5.2838c.9463,2.277,1.4182,4.768,1.4182,7.4829,0,2.9046-.523,5.5222-1.5642,7.8527-1.046,2.3256-2.5616,4.1112-4.5491,5.3519-1.9899,1.2407-4.082,1.8586-6.2763,1.8586-1.6056,0-3.0457-.3406-4.3204-1.0169-1.2772-.6763-2.3256-1.5326-3.1454-2.5689v13.8322h-4.8167ZM599.2195,213.6417c0,3.6587.7395,6.3639,2.221,8.1105s3.2744,2.6224,5.3786,2.6224c2.1407,0,3.975-.905,5.4978-2.7149,1.5277-1.8099,2.2891-4.6172,2.2891-8.417,0-3.6198-.7444-6.3347-2.2356-8.1348-1.4888-1.8002-3.2671-2.7051-5.3373-2.7051-2.0507,0-3.8679.9633-5.4443,2.8803-1.5812,1.9169-2.3694,4.7048-2.3694,8.3587Z"/>
        <path class="cls-3" d="M635.8531,223.3821l.6957,4.2572c-1.3574.2871-2.5689.4281-3.6393.4281-1.7467,0-3.1041-.2773-4.0674-.832-.9633-.5498-1.6421-1.2796-2.0337-2.1797s-.5887-2.7927-.5887-5.6827v-16.3524h-3.5322v-3.7463h3.5322v-7.0401l4.7875-2.89v9.9302h4.8459v3.7463h-4.8459v16.6151c0,1.3769.0876,2.2575.2579,2.6516s.4427.7055.8271.939c.3844.2287.9341.3454,1.6494.3454.5352,0,1.2358-.0632,2.1116-.1897Z"/>
        <path class="cls-3" d="M659.1094,224.1898c-1.7856,1.5131-3.503,2.5835-5.1573,3.2111-1.6445.6228-3.4155.9341-5.3081.9341-3.1187,0-5.5222-.7639-7.1958-2.2867-1.6785-1.5277-2.5202-3.4739-2.5202-5.8481,0-1.3915.3211-2.6613.9536-3.8144.6325-1.1482,1.4596-2.0726,2.4911-2.7684,1.0217-.6957,2.1797-1.2212,3.4641-1.5812.9439-.2481,2.3694-.4865,4.2815-.7201,3.8874-.4622,6.7531-1.0169,8.5873-1.6591.0146-.6617.0243-1.0801.0243-1.2601,0-1.9607-.4525-3.3425-1.3623-4.1453-1.2309-1.0898-3.0603-1.6348-5.4881-1.6348-2.2624,0-3.9361.399-5.0113,1.192-1.0801.7931-1.878,2.1991-2.3986,4.2182l-4.7096-.6422c.4281-2.0191,1.1336-3.6441,2.1164-4.8848.9779-1.2407,2.3937-2.1943,4.2523-2.8657,1.8586-.6666,4.0042-1.0023,6.4514-1.0023,2.4229,0,4.3983.2871,5.9114.8563s2.6321,1.2893,3.3425,2.1553c.7152.866,1.2163,1.9559,1.4985,3.2792.1654.8174.2433,2.2964.2433,4.4372v6.4222c0,4.481.1022,7.3126.3114,8.4997.2043,1.1871.6082,2.3208,1.2163,3.4106h-5.0308c-.5011-.9974-.8222-2.1699-.9633-3.503ZM658.7056,213.4277c-1.7467.7152-4.3739,1.3234-7.8673,1.8196-1.9802.2871-3.3814.6082-4.2037.9633-.8174.36-1.4499.8806-1.8975,1.5666s-.6714,1.4499-.6714,2.2867c0,1.2844.4865,2.3548,1.4596,3.2111s2.3937,1.2844,4.2718,1.2844c1.8537,0,3.503-.4038,4.9481-1.2163s2.5057-1.9218,3.1868-3.3279c.5157-1.0898.7736-2.6954.7736-4.8167v-1.771Z"/>
        <path class="cls-3" d="M671.0392,227.6928v-28.4185h4.3399v4.0431c2.0824-3.1235,5.0989-4.6853,9.0398-4.6853,1.7126,0,3.289.3065,4.7242.9244,1.4353.613,2.5154,1.4207,3.2257,2.4181.7103,1.0023,1.2163,2.1894,1.4985,3.5614.1752.8904.2676,2.4521.2676,4.6805v17.4763h-4.8167v-17.2866c0-1.9607-.1897-3.4301-.5595-4.4031-.3795-.9731-1.0412-1.7467-1.9948-2.3256s-2.0726-.8709-3.3571-.8709c-2.0532,0-3.8242.652-5.313,1.951-1.4888,1.3039-2.2381,3.7755-2.2381,7.4148v15.5204h-4.8167Z"/>
        <path class="cls-3" d="M720.0624,217.281l4.7388.6179c-.5157,3.2646-1.8391,5.8189-3.9701,7.6678-2.1359,1.844-4.7534,2.7684-7.8575,2.7684-3.8874,0-7.0158-1.2699-9.3755-3.8144-2.3646-2.5397-3.5517-6.1838-3.5517-10.9276,0-3.07.5109-5.7557,1.5277-8.057s2.564-4.0285,4.6415-5.1767c2.0824-1.1531,4.3399-1.7272,6.7823-1.7272,3.0895,0,5.6146.7785,7.5753,2.3402s3.2209,3.7804,3.7706,6.6509l-4.6805.7249c-.4476-1.9121-1.2358-3.3474-2.3646-4.3107-1.1385-.9633-2.5057-1.445-4.1112-1.445-2.4278,0-4.3983.8709-5.9114,2.6078-1.518,1.7418-2.277,4.4907-2.277,8.2565,0,3.8193.7298,6.5925,2.1943,8.3197,1.4645,1.7321,3.3717,2.5981,5.7265,2.5981,1.8878,0,3.469-.579,4.7388-1.7418,1.265-1.158,2.0678-2.9387,2.4035-5.3519Z"/>
        <path class="cls-3" d="M748.3787,218.5411l4.9724.6179c-.7833,2.9046-2.2381,5.1621-4.3593,6.7677s-4.8361,2.4083-8.1348,2.4083c-4.155,0-7.4537-1.2796-9.8864-3.8388s-3.6539-6.1498-3.6539-10.7719c0-4.7826,1.2309-8.49,3.6928-11.1319s5.6535-3.9604,9.5799-3.9604c3.7998,0,6.9039,1.2942,9.3123,3.8777,2.4083,2.5884,3.6149,6.2276,3.6149,10.9178,0,.2871-.0097.7152-.0292,1.2844h-21.1934c.1752,3.1235,1.0606,5.5173,2.6467,7.1715,1.591,1.6639,3.5712,2.4911,5.9454,2.4911,1.7613,0,3.2695-.4622,4.5199-1.3915s2.2381-2.4083,2.9727-4.4421ZM732.5614,210.7517h15.8659c-.2141-2.3889-.8174-4.1793-1.8196-5.3762-1.5326-1.8537-3.5225-2.783-5.9649-2.783-2.2089,0-4.0723.7395-5.5757,2.2235-1.5083,1.4791-2.3451,3.4593-2.5057,5.9357Z"/>
        <path class="cls-3" d="M784.2362,227.6928v-34.6023h-12.9272v-4.6269h31.0944v4.6269h-12.9807v34.6023h-5.1865Z"/>
        <path class="cls-3" d="M820.4927,218.5411l4.9772.6179c-.7833,2.9046-2.2381,5.1621-4.3642,6.7677-2.1213,1.6056-4.8313,2.4083-8.1348,2.4083-4.155,0-7.4488-1.2796-9.8864-3.8388-2.4327-2.5592-3.649-6.1498-3.649-10.7719,0-4.7826,1.2261-8.49,3.6879-11.1319s5.6584-3.9604,9.5847-3.9604c3.795,0,6.8991,1.2942,9.3123,3.8777,2.4035,2.5884,3.6101,6.2276,3.6101,10.9178,0,.2871-.0097.7152-.0292,1.2844h-21.1934c.18,3.1235,1.0606,5.5173,2.6516,7.1715,1.591,1.6639,3.5663,2.4911,5.9406,2.4911,1.7661,0,3.2744-.4622,4.5248-1.3915,1.2455-.9293,2.2381-2.4083,2.9679-4.4421ZM804.6804,210.7517h15.8659c-.2141-2.3889-.8222-4.1793-1.8196-5.3762-1.5326-1.8537-3.5225-2.783-5.9698-2.783-2.2089,0-4.0674.7395-5.5757,2.2235-1.5083,1.4791-2.3451,3.4593-2.5008,5.9357Z"/>
        <path class="cls-3" d="M829.5909,219.2077l4.7632-.7493c.2676,1.9121,1.012,3.3765,2.2332,4.3885,1.2261,1.0217,2.9289,1.5277,5.1281,1.5277,2.2089,0,3.8533-.4525,4.9237-1.3526s1.6056-1.9559,1.6056-3.1722c0-1.085-.4768-1.9413-1.4207-2.5689-.6617-.4281-2.3013-.9682-4.9237-1.6299-3.5322-.8904-5.9844-1.6639-7.3467-2.3159s-2.3986-1.552-3.1041-2.7003c-.7006-1.1531-1.0558-2.4229-1.0558-3.8144,0-1.265.2871-2.4375.8709-3.5176.579-1.0801,1.3672-1.9753,2.3646-2.6905.7493-.5546,1.771-1.0217,3.0652-1.4061s2.6808-.5741,4.1647-.5741c2.2283,0,4.1842.3211,5.8676.9633,1.6931.6422,2.9338,1.5131,3.7366,2.6078.8028,1.0996,1.3526,2.564,1.6591,4.4031l-4.7096.6422c-.2141-1.4645-.832-2.603-1.8634-3.4252-1.0217-.8222-2.4716-1.2309-4.3447-1.2309-2.2137,0-3.7901.3649-4.734,1.0947-.9487.7347-1.4207,1.591-1.4207,2.5689,0,.6276.1946,1.1871.5887,1.6883.3941.5157,1.0071.9439,1.844,1.2844.4865.18,1.9023.5887,4.2572,1.2309,3.4106.9098,5.7849,1.6542,7.1277,2.2332,1.3526.579,2.4083,1.4255,3.1722,2.53.7687,1.1044,1.1531,2.4813,1.1531,4.1209,0,1.6056-.4719,3.1187-1.4061,4.5345-.9341,1.4207-2.2867,2.5154-4.0528,3.2938-1.7661.7736-3.7609,1.1628-5.9941,1.1628-3.6928,0-6.505-.7687-8.4414-2.3013s-3.1722-3.8096-3.7074-6.8261Z"/>
        <path class="cls-3" d="M869.438,223.3821l.6909,4.2572c-1.3526.2871-2.5689.4281-3.6393.4281-1.7467,0-3.1041-.2773-4.0674-.832-.9633-.5498-1.6396-1.2796-2.0337-2.1797-.3892-.9001-.5838-2.7927-.5838-5.6827v-16.3524h-3.5322v-3.7463h3.5322v-7.0401l4.7875-2.89v9.9302h4.8459v3.7463h-4.8459v16.6151c0,1.3769.0876,2.2575.253,2.6516.1703.3941.4476.7055.8271.939.3892.2287.9341.3454,1.6494.3454.5352,0,1.2407-.0632,2.1164-.1897Z"/>
        <path class="cls-3" d="M874.172,194.0052v-5.5416h4.8167v5.5416h-4.8167ZM874.172,227.6928v-28.4185h4.8167v28.4185h-4.8167Z"/>
        <path class="cls-3" d="M886.3208,227.6928v-28.4185h4.335v4.0431c2.0872-3.1235,5.1037-4.6853,9.0447-4.6853,1.7126,0,3.289.3065,4.7194.9244,1.4401.613,2.5154,1.4207,3.2306,2.4181.7103,1.0023,1.2115,2.1894,1.4985,3.5614.1752.8904.2627,2.4521.2627,4.6805v17.4763h-4.8167v-17.2866c0-1.9607-.1849-3.4301-.5595-4.4031s-1.0363-1.7467-1.9899-2.3256c-.9585-.579-2.0775-.8709-3.3619-.8709-2.0483,0-3.8193.652-5.3081,1.951-1.4937,1.3039-2.2381,3.7755-2.2381,7.4148v15.5204h-4.8167Z"/>
        <path class="cls-3" d="M915.9166,230.0477l4.6853.6957c.1946,1.445.7395,2.4959,1.6299,3.1576,1.192.8904,2.8268,1.338,4.8994,1.338,2.2283,0,3.9507-.4476,5.1621-1.338s2.0337-2.1407,2.4619-3.7463c.2481-.9828.3649-3.0408.3454-6.179-2.1018,2.4765-4.7242,3.7171-7.8624,3.7171-3.9117,0-6.9331-1.4109-9.0739-4.228s-3.2111-6.1984-3.2111-10.1442c0-2.71.4914-5.2108,1.4742-7.5024.9779-2.2916,2.4035-4.0626,4.2669-5.313s4.0528-1.8732,6.5682-1.8732c3.3522,0,6.1157,1.3574,8.2954,4.0674v-3.4252h4.4421v24.5651c0,4.4226-.4525,7.5607-1.3526,9.4047-.9001,1.8488-2.3256,3.3036-4.2815,4.3739-1.951,1.0704-4.3545,1.6056-7.2104,1.6056-3.3911,0-6.1255-.759-8.2176-2.2867-2.0824-1.5229-3.0944-3.8193-3.0214-6.8893ZM919.9014,212.9752c0,3.7269.7395,6.4466,2.2235,8.1592s3.3328,2.5689,5.5659,2.5689c2.2137,0,4.0674-.8514,5.5659-2.5543s2.2478-4.3739,2.2478-8.0132c0-3.4787-.7736-6.1011-2.3159-7.8673s-3.4009-2.6516-5.5805-2.6516c-2.1407,0-3.9604.8709-5.4589,2.6127-1.4985,1.7369-2.2478,4.3204-2.2478,7.7456Z"/>
      </g>
    </g>
  </g>
</svg>